<svg width="45" height="45" viewBox="0 0 45 45" fill="none" xmlns="http://www.w3.org/2000/svg">
<circle cx="22.5" cy="22.5" r="22.5" fill="#0156FF"/>
<path d="M22.7787 13.5854C18.1721 13.5854 14.4243 17.3603 14.4243 22.0001V25.4863C14.4243 26.3479 15.1737 27.0489 16.0952 27.0489H16.9306C17.1522 27.0489 17.3647 26.9602 17.5214 26.8024C17.6781 26.6446 17.7661 26.4306 17.7661 26.2074V21.8798C17.7661 21.6566 17.6781 21.4426 17.5214 21.2847C17.3647 21.1269 17.1522 21.0383 16.9306 21.0383H16.1721C16.6366 17.7818 19.4186 15.2684 22.7787 15.2684C26.1389 15.2684 28.9209 17.7818 29.3854 21.0383H28.6268C28.4053 21.0383 28.1928 21.1269 28.0361 21.2847C27.8794 21.4426 27.7914 21.6566 27.7914 21.8798V27.0489C27.7914 27.977 27.042 28.7318 26.1205 28.7318H24.4496V27.8903H21.1079V30.4147H26.1205C27.9635 30.4147 29.4623 28.9051 29.4623 27.0489C30.3838 27.0489 31.1332 26.3479 31.1332 25.4863V22.0001C31.1332 17.3603 27.3854 13.5854 22.7787 13.5854Z" fill="white"/>
</svg>
