<svg width="45" height="45" viewBox="0 0 45 45" fill="none" xmlns="http://www.w3.org/2000/svg">
<circle cx="22.5" cy="22.5" r="22.5" fill="#0156FF"/>
<g clip-path="url(#clip0)">
<path d="M24.7474 30.4876L22.8385 32.4104L20.9296 30.4876C17.1777 29.6149 14.377 26.2261 14.377 22.1827C14.377 17.478 18.1677 13.6597 22.8385 13.6597C27.5093 13.6597 31.3 17.478 31.3 22.1827C31.3 26.2261 28.4993 29.6149 24.7474 30.4876ZM17.781 25.0942C19.0232 26.9608 20.8881 28.1489 22.9739 28.1489C25.0588 28.1489 26.9246 26.9616 28.1659 25.0942C26.7577 23.7685 24.9014 23.0323 22.9739 23.0351C21.0461 23.0321 19.1895 23.7683 17.781 25.0942ZM22.8385 21.3304C23.5117 21.3304 24.1574 21.061 24.6335 20.5815C25.1095 20.102 25.377 19.4517 25.377 18.7735C25.377 18.0954 25.1095 17.445 24.6335 16.9655C24.1574 16.486 23.5117 16.2166 22.8385 16.2166C22.1653 16.2166 21.5196 16.486 21.0435 16.9655C20.5675 17.445 20.3 18.0954 20.3 18.7735C20.3 19.4517 20.5675 20.102 21.0435 20.5815C21.5196 21.061 22.1653 21.3304 22.8385 21.3304Z" fill="white"/>
</g>
<defs>
<clipPath id="clip0">
<rect width="20.3077" height="20.4554" fill="white" transform="translate(12.6846 11.9551)"/>
</clipPath>
</defs>
</svg>
