<svg width="45" height="45" viewBox="0 0 45 45" fill="none" xmlns="http://www.w3.org/2000/svg">
<circle cx="22.5" cy="22.5" r="22.5" fill="#0156FF"/>
<g clip-path="url(#clip0)">
<path d="M31.1 14.3615C31.0489 14.2334 30.9508 14.1301 30.826 14.073C30.7013 14.016 30.5595 14.0095 30.4302 14.0551C30.3008 14.1006 30.1939 14.1947 30.1316 14.3176C30.0694 14.4405 30.0566 14.5829 30.0959 14.7151C30.9134 17.0816 29.2907 18.849 28.0534 19.7956L27.5536 19.0741C27.3855 18.8322 27.0097 18.631 26.7176 18.6274L23.9121 18.6398C23.5694 18.6502 23.2359 18.7538 22.9468 18.9394L14.68 24.7777C14.4878 24.914 14.3569 25.1215 14.3162 25.3547C14.2754 25.588 14.3281 25.828 14.4627 26.0222L18.2194 31.4359C18.501 31.8392 18.9507 31.7905 19.352 31.5086L27.6187 25.6694C27.8563 25.5001 28.1308 25.1349 28.2276 24.8557L29.1059 22.0682C29.2027 21.7899 29.1437 21.3653 28.9756 21.1234L28.6712 20.6837C30.3326 19.4012 32.0574 17.1348 31.1 14.3615ZM27.2535 22.6558C27.1012 22.7632 26.9294 22.8393 26.7479 22.8798C26.5664 22.9202 26.3787 22.9243 26.1957 22.8917C26.0126 22.8591 25.8377 22.7905 25.681 22.6898C25.5243 22.5891 25.3888 22.4583 25.2823 22.3048C25.0666 21.9943 24.9821 21.6103 25.0473 21.2371C25.1124 20.8638 25.322 20.5319 25.6299 20.3141C25.8713 20.1438 26.1595 20.0537 26.4542 20.0564C26.7489 20.0591 27.0354 20.1545 27.2737 20.3292C27.0344 20.4746 26.8698 20.5596 26.839 20.5729C26.7299 20.6253 26.6417 20.7135 26.5889 20.8229C26.5361 20.9324 26.5217 21.0567 26.5482 21.1755C26.5747 21.2943 26.6404 21.4004 26.7347 21.4766C26.8289 21.5528 26.9461 21.5945 27.0669 21.5949C27.1426 21.5949 27.22 21.5772 27.2931 21.5426C27.4638 21.461 27.6468 21.3644 27.8378 21.2501C27.8817 21.5161 27.8502 21.7891 27.7468 22.0378C27.6434 22.2865 27.4724 22.5007 27.2535 22.6558Z" fill="white"/>
</g>
<defs>
<clipPath id="clip0">
<rect width="17.6" height="17.7268" fill="white" transform="translate(14.0386 14.0027)"/>
</clipPath>
</defs>
</svg>
