<svg width="65" height="66" viewBox="0 0 65 66" fill="none" xmlns="http://www.w3.org/2000/svg">
<circle cx="32.5" cy="33.2024" r="32.5" fill="#0156FF"/>
<g clip-path="url(#clip0)">
<path d="M45.2047 21.6971C45.1293 21.5092 44.9844 21.3577 44.8001 21.274C44.6158 21.1903 44.4063 21.1809 44.2152 21.2477C44.0242 21.3145 43.8662 21.4524 43.7742 21.6327C43.6823 21.813 43.6633 22.0219 43.7214 22.2158C44.9291 25.6868 42.5319 28.279 40.7041 29.6674L39.9657 28.6092C39.7174 28.2543 39.1623 27.9592 38.7307 27.954L34.5863 27.9722C34.08 27.9874 33.5873 28.1393 33.1602 28.4116L20.948 36.9747C20.6639 37.1745 20.4707 37.4789 20.4105 37.8209C20.3503 38.163 20.4281 38.515 20.6269 38.7999L26.1766 46.7403C26.5926 47.3318 27.2569 47.2603 27.8497 46.8469L40.0619 38.2825C40.4129 38.0342 40.8185 37.4986 40.9615 37.0891L42.2589 33.0006C42.4019 32.5924 42.3148 31.9697 42.0665 31.6148L41.6167 30.97C44.0711 29.0889 46.6191 25.7648 45.2047 21.6971ZM39.5224 33.8625C39.2974 34.0199 39.0436 34.1315 38.7755 34.1909C38.5074 34.2503 38.2302 34.2562 37.9597 34.2084C37.6893 34.1606 37.431 34.06 37.1994 33.9123C36.9679 33.7646 36.7678 33.5727 36.6104 33.3477C36.2918 32.8922 36.1669 32.329 36.2632 31.7815C36.3595 31.2341 36.669 30.7473 37.1239 30.4279C37.4805 30.178 37.9063 30.0458 38.3416 30.0498C38.777 30.0538 39.2003 30.1937 39.5523 30.45C39.1987 30.6632 38.9556 30.788 38.9101 30.8075C38.749 30.8843 38.6187 31.0136 38.5406 31.1742C38.4626 31.3347 38.4414 31.517 38.4805 31.6912C38.5196 31.8654 38.6168 32.0211 38.756 32.1329C38.8952 32.2447 39.0683 32.3058 39.2468 32.3064C39.3586 32.3064 39.473 32.2804 39.5809 32.2297C39.8331 32.1101 40.1035 31.9684 40.3856 31.8007C40.4505 32.1907 40.4039 32.5912 40.2512 32.956C40.0985 33.3207 39.8459 33.635 39.5224 33.8625Z" fill="white"/>
</g>
<defs>
<clipPath id="clip0">
<rect width="26" height="26" fill="white" transform="translate(20 21.1707)"/>
</clipPath>
</defs>
</svg>
